<?xml version="1.0" encoding="UTF-8" standalone="no"?>
<!DOCTYPE svg PUBLIC "-//W3C//DTD SVG 1.1//EN"
 "http://www.w3.org/Graphics/SVG/1.1/DTD/svg11.dtd">
<!-- Generated by graphviz version 7.0.4 (20221203.1631)
 -->
<!-- Pages: 1 -->
<svg width="2521pt" height="332pt"
 viewBox="0.00 0.00 2520.94 332.00" xmlns="http://www.w3.org/2000/svg" xmlns:xlink="http://www.w3.org/1999/xlink">
<g id="graph0" class="graph" transform="scale(1 1) rotate(0) translate(4 328)">
<polygon fill="white" stroke="none" points="-4,4 -4,-328 2516.94,-328 2516.94,4 -4,4"/>
<!-- node2054881392 -->
<g id="node1" class="node">
<title>node2054881392</title>
<ellipse fill="none" stroke="black" cx="1408" cy="-306" rx="57.69" ry="18"/>
<text text-anchor="middle" x="1408" y="-302.3" font-family="Times New Roman,serif" font-size="14.00">for statement</text>
</g>
<!-- node1908153060 -->
<g id="node2" class="node">
<title>node1908153060</title>
<ellipse fill="none" stroke="black" cx="481" cy="-234" rx="27" ry="18"/>
<text text-anchor="middle" x="481" y="-230.3" font-family="Times New Roman,serif" font-size="14.00">for</text>
</g>
<!-- node2054881392&#45;&gt;node1908153060 -->
<g id="edge1" class="edge">
<title>node2054881392&#45;&gt;node1908153060</title>
<path fill="none" stroke="black" d="M1350.07,-304.42C1178.57,-302.25 675.48,-292.52 517,-252 515.37,-251.58 513.72,-251.09 512.07,-250.54"/>
<polygon fill="black" stroke="black" points="513.43,-247.31 502.84,-246.85 510.83,-253.81 513.43,-247.31"/>
</g>
<!-- node116211441 -->
<g id="node3" class="node">
<title>node116211441</title>
<ellipse fill="none" stroke="black" cx="553" cy="-234" rx="27" ry="18"/>
<text text-anchor="middle" x="553" y="-230.3" font-family="Times New Roman,serif" font-size="14.00">(</text>
</g>
<!-- node2054881392&#45;&gt;node116211441 -->
<g id="edge2" class="edge">
<title>node2054881392&#45;&gt;node116211441</title>
<path fill="none" stroke="black" d="M1350.19,-304.07C1188.36,-301.02 733.25,-289.28 589,-252 587.37,-251.58 585.72,-251.08 584.08,-250.53"/>
<polygon fill="black" stroke="black" points="585.43,-247.3 574.84,-246.83 582.83,-253.8 585.43,-247.3"/>
</g>
<!-- node607635164 -->
<g id="node4" class="node">
<title>node607635164</title>
<ellipse fill="none" stroke="black" cx="627" cy="-234" rx="28.7" ry="18"/>
<text text-anchor="middle" x="627" y="-230.3" font-family="Times New Roman,serif" font-size="14.00">INIT</text>
</g>
<!-- node2054881392&#45;&gt;node607635164 -->
<g id="edge3" class="edge">
<title>node2054881392&#45;&gt;node607635164</title>
<path fill="none" stroke="black" d="M1353.08,-300.08C1204.26,-286.74 795.76,-250.13 666.66,-238.55"/>
<polygon fill="black" stroke="black" points="667.18,-235.09 656.91,-237.68 666.55,-242.06 667.18,-235.09"/>
</g>
<!-- node529116035 -->
<g id="node5" class="node">
<title>node529116035</title>
<ellipse fill="none" stroke="black" cx="1368" cy="-234" rx="27" ry="18"/>
<text text-anchor="middle" x="1368" y="-230.3" font-family="Times New Roman,serif" font-size="14.00">;</text>
</g>
<!-- node2054881392&#45;&gt;node529116035 -->
<g id="edge4" class="edge">
<title>node2054881392&#45;&gt;node529116035</title>
<path fill="none" stroke="black" d="M1398.32,-288.05C1393.73,-280.03 1388.15,-270.26 1383.03,-261.3"/>
<polygon fill="black" stroke="black" points="1386.07,-259.57 1378.07,-252.62 1379.99,-263.04 1386.07,-259.57"/>
</g>
<!-- node242481580 -->
<g id="node6" class="node">
<title>node242481580</title>
<ellipse fill="none" stroke="black" cx="1449" cy="-234" rx="36.29" ry="18"/>
<text text-anchor="middle" x="1449" y="-230.3" font-family="Times New Roman,serif" font-size="14.00">COND</text>
</g>
<!-- node2054881392&#45;&gt;node242481580 -->
<g id="edge5" class="edge">
<title>node2054881392&#45;&gt;node242481580</title>
<path fill="none" stroke="black" d="M1417.92,-288.05C1422.56,-280.14 1428.18,-270.54 1433.37,-261.69"/>
<polygon fill="black" stroke="black" points="1436.37,-263.49 1438.4,-253.1 1430.33,-259.95 1436.37,-263.49"/>
</g>
<!-- node1627800613 -->
<g id="node7" class="node">
<title>node1627800613</title>
<ellipse fill="none" stroke="black" cx="1530" cy="-234" rx="27" ry="18"/>
<text text-anchor="middle" x="1530" y="-230.3" font-family="Times New Roman,serif" font-size="14.00">;</text>
</g>
<!-- node2054881392&#45;&gt;node1627800613 -->
<g id="edge6" class="edge">
<title>node2054881392&#45;&gt;node1627800613</title>
<path fill="none" stroke="black" d="M1434.77,-289.64C1454.13,-278.53 1480.27,-263.53 1500.27,-252.06"/>
<polygon fill="black" stroke="black" points="1501.86,-255.18 1508.79,-247.17 1498.38,-249.11 1501.86,-255.18"/>
</g>
<!-- node2065530879 -->
<g id="node8" class="node">
<title>node2065530879</title>
<ellipse fill="none" stroke="black" cx="1985" cy="-234" rx="31.4" ry="18"/>
<text text-anchor="middle" x="1985" y="-230.3" font-family="Times New Roman,serif" font-size="14.00">ITER</text>
</g>
<!-- node2054881392&#45;&gt;node2065530879 -->
<g id="edge7" class="edge">
<title>node2054881392&#45;&gt;node2065530879</title>
<path fill="none" stroke="black" d="M1460.99,-298.57C1574.73,-284.77 1840.26,-252.56 1943.19,-240.07"/>
<polygon fill="black" stroke="black" points="1943.34,-243.58 1952.85,-238.9 1942.5,-236.63 1943.34,-243.58"/>
</g>
<!-- node697960108 -->
<g id="node9" class="node">
<title>node697960108</title>
<ellipse fill="none" stroke="black" cx="2061" cy="-234" rx="27" ry="18"/>
<text text-anchor="middle" x="2061" y="-230.3" font-family="Times New Roman,serif" font-size="14.00">)</text>
</g>
<!-- node2054881392&#45;&gt;node697960108 -->
<g id="edge8" class="edge">
<title>node2054881392&#45;&gt;node697960108</title>
<path fill="none" stroke="black" d="M1464.78,-302.69C1596.61,-296.93 1920.16,-280.28 2025,-252 2026.63,-251.56 2028.27,-251.05 2029.91,-250.49"/>
<polygon fill="black" stroke="black" points="2031.18,-253.75 2039.14,-246.76 2028.55,-247.26 2031.18,-253.75"/>
</g>
<!-- node943010986 -->
<g id="node10" class="node">
<title>node943010986</title>
<ellipse fill="none" stroke="black" cx="27" cy="-162" rx="27" ry="18"/>
<text text-anchor="middle" x="27" y="-158.3" font-family="Times New Roman,serif" font-size="14.00">type</text>
</g>
<!-- node607635164&#45;&gt;node943010986 -->
<g id="edge9" class="edge">
<title>node607635164&#45;&gt;node943010986</title>
<path fill="none" stroke="black" d="M605.37,-221.75C600.13,-219.48 594.47,-217.36 589,-216 361.64,-159.28 289.76,-239.05 63,-180 61.37,-179.58 59.72,-179.08 58.08,-178.52"/>
<polygon fill="black" stroke="black" points="59.43,-175.3 48.85,-174.82 56.83,-181.79 59.43,-175.3"/>
</g>
<!-- node1807837413 -->
<g id="node11" class="node">
<title>node1807837413</title>
<ellipse fill="none" stroke="black" cx="110" cy="-162" rx="38.19" ry="18"/>
<text text-anchor="middle" x="110" y="-158.3" font-family="Times New Roman,serif" font-size="14.00">variable</text>
</g>
<!-- node607635164&#45;&gt;node1807837413 -->
<g id="edge10" class="edge">
<title>node607635164&#45;&gt;node1807837413</title>
<path fill="none" stroke="black" d="M605.35,-221.81C600.12,-219.53 594.46,-217.41 589,-216 402.42,-167.98 345.23,-221.12 157,-180 154.26,-179.4 151.45,-178.68 148.65,-177.88"/>
<polygon fill="black" stroke="black" points="150.01,-174.64 139.42,-174.94 147.89,-181.31 150.01,-174.64"/>
</g>
<!-- node2066940133 -->
<g id="node12" class="node">
<title>node2066940133</title>
<ellipse fill="none" stroke="black" cx="199" cy="-162" rx="33.29" ry="18"/>
<text text-anchor="middle" x="199" y="-158.3" font-family="Times New Roman,serif" font-size="14.00">assign</text>
</g>
<!-- node607635164&#45;&gt;node2066940133 -->
<g id="edge11" class="edge">
<title>node607635164&#45;&gt;node2066940133</title>
<path fill="none" stroke="black" d="M605.33,-221.89C600.1,-219.61 594.45,-217.46 589,-216 438.81,-175.74 391.89,-217.54 241,-180 238.88,-179.47 236.73,-178.86 234.57,-178.19"/>
<polygon fill="black" stroke="black" points="235.96,-174.96 225.36,-174.93 233.63,-181.56 235.96,-174.96"/>
</g>
<!-- node48612937 -->
<g id="node13" class="node">
<title>node48612937</title>
<ellipse fill="none" stroke="black" cx="279" cy="-162" rx="29.5" ry="18"/>
<text text-anchor="middle" x="279" y="-158.3" font-family="Times New Roman,serif" font-size="14.00">value</text>
</g>
<!-- node607635164&#45;&gt;node48612937 -->
<g id="edge12" class="edge">
<title>node607635164&#45;&gt;node48612937</title>
<path fill="none" stroke="black" d="M605.3,-222C600.07,-219.72 594.42,-217.54 589,-216 471.68,-182.75 434.32,-213.25 317,-180 315.27,-179.51 313.51,-178.95 311.75,-178.35"/>
<polygon fill="black" stroke="black" points="313.1,-175.12 302.51,-174.73 310.55,-181.63 313.1,-175.12"/>
</g>
<!-- node325333723 -->
<g id="node14" class="node">
<title>node325333723</title>
<ellipse fill="none" stroke="black" cx="364" cy="-162" rx="37.89" ry="18"/>
<text text-anchor="middle" x="364" y="-158.3" font-family="Times New Roman,serif" font-size="14.00">comma</text>
</g>
<!-- node607635164&#45;&gt;node325333723 -->
<g id="edge13" class="edge">
<title>node607635164&#45;&gt;node325333723</title>
<path fill="none" stroke="black" d="M604.82,-222.09C599.7,-219.86 594.23,-217.68 589,-216 512.14,-191.37 488.72,-201.79 411,-180 408.59,-179.32 406.13,-178.59 403.65,-177.81"/>
<polygon fill="black" stroke="black" points="404.9,-174.53 394.3,-174.68 402.67,-181.17 404.9,-174.53"/>
</g>
<!-- node1937962514 -->
<g id="node15" class="node">
<title>node1937962514</title>
<ellipse fill="none" stroke="black" cx="458" cy="-162" rx="38.19" ry="18"/>
<text text-anchor="middle" x="458" y="-158.3" font-family="Times New Roman,serif" font-size="14.00">variable</text>
</g>
<!-- node607635164&#45;&gt;node1937962514 -->
<g id="edge14" class="edge">
<title>node607635164&#45;&gt;node1937962514</title>
<path fill="none" stroke="black" d="M604.15,-222.62C599.17,-220.4 593.92,-218.1 589,-216 558.39,-202.96 523.44,-188.87 497.35,-178.49"/>
<polygon fill="black" stroke="black" points="498.74,-175.27 488.15,-174.84 496.16,-181.78 498.74,-175.27"/>
</g>
<!-- node274064559 -->
<g id="node16" class="node">
<title>node274064559</title>
<ellipse fill="none" stroke="black" cx="547" cy="-162" rx="33.29" ry="18"/>
<text text-anchor="middle" x="547" y="-158.3" font-family="Times New Roman,serif" font-size="14.00">assign</text>
</g>
<!-- node607635164&#45;&gt;node274064559 -->
<g id="edge15" class="edge">
<title>node607635164&#45;&gt;node274064559</title>
<path fill="none" stroke="black" d="M610.81,-218.83C599.86,-209.25 585.17,-196.4 572.65,-185.44"/>
<polygon fill="black" stroke="black" points="574.96,-182.82 565.13,-178.87 570.35,-188.09 574.96,-182.82"/>
</g>
<!-- node1018081122 -->
<g id="node17" class="node">
<title>node1018081122</title>
<ellipse fill="none" stroke="black" cx="627" cy="-162" rx="29.5" ry="18"/>
<text text-anchor="middle" x="627" y="-158.3" font-family="Times New Roman,serif" font-size="14.00">value</text>
</g>
<!-- node607635164&#45;&gt;node1018081122 -->
<g id="edge16" class="edge">
<title>node607635164&#45;&gt;node1018081122</title>
<path fill="none" stroke="black" d="M627,-215.7C627,-208.41 627,-199.73 627,-191.54"/>
<polygon fill="black" stroke="black" points="630.5,-191.62 627,-181.62 623.5,-191.62 630.5,-191.62"/>
</g>
<!-- node242131142 -->
<g id="node18" class="node">
<title>node242131142</title>
<ellipse fill="none" stroke="black" cx="712" cy="-162" rx="37.89" ry="18"/>
<text text-anchor="middle" x="712" y="-158.3" font-family="Times New Roman,serif" font-size="14.00">comma</text>
</g>
<!-- node607635164&#45;&gt;node242131142 -->
<g id="edge17" class="edge">
<title>node607635164&#45;&gt;node242131142</title>
<path fill="none" stroke="black" d="M643.79,-219.17C655.51,-209.52 671.4,-196.44 684.89,-185.33"/>
<polygon fill="black" stroke="black" points="687.11,-188.03 692.6,-178.97 682.66,-182.63 687.11,-188.03"/>
</g>
<!-- node1782113663 -->
<g id="node19" class="node">
<title>node1782113663</title>
<ellipse fill="none" stroke="black" cx="806" cy="-162" rx="38.19" ry="18"/>
<text text-anchor="middle" x="806" y="-158.3" font-family="Times New Roman,serif" font-size="14.00">variable</text>
</g>
<!-- node607635164&#45;&gt;node1782113663 -->
<g id="edge18" class="edge">
<title>node607635164&#45;&gt;node1782113663</title>
<path fill="none" stroke="black" d="M650.77,-223.7C680.42,-212.11 731.51,-192.13 766.94,-178.27"/>
<polygon fill="black" stroke="black" points="767.95,-181.64 775.99,-174.74 765.4,-175.12 767.95,-181.64"/>
</g>
<!-- node1433867275 -->
<g id="node20" class="node">
<title>node1433867275</title>
<ellipse fill="none" stroke="black" cx="895" cy="-162" rx="33.29" ry="18"/>
<text text-anchor="middle" x="895" y="-158.3" font-family="Times New Roman,serif" font-size="14.00">assign</text>
</g>
<!-- node607635164&#45;&gt;node1433867275 -->
<g id="edge19" class="edge">
<title>node607635164&#45;&gt;node1433867275</title>
<path fill="none" stroke="black" d="M654.5,-227.97C697.43,-219.81 782.71,-202.32 853,-180 854.94,-179.38 856.92,-178.72 858.9,-178.02"/>
<polygon fill="black" stroke="black" points="859.91,-181.38 868.05,-174.6 857.45,-174.83 859.91,-181.38"/>
</g>
<!-- node476800120 -->
<g id="node21" class="node">
<title>node476800120</title>
<ellipse fill="none" stroke="black" cx="975" cy="-162" rx="29.5" ry="18"/>
<text text-anchor="middle" x="975" y="-158.3" font-family="Times New Roman,serif" font-size="14.00">value</text>
</g>
<!-- node607635164&#45;&gt;node476800120 -->
<g id="edge20" class="edge">
<title>node607635164&#45;&gt;node476800120</title>
<path fill="none" stroke="black" d="M655.33,-230.56C710.53,-225.28 835.91,-210.72 937,-180 938.72,-179.48 940.47,-178.89 942.23,-178.27"/>
<polygon fill="black" stroke="black" points="943.46,-181.54 951.45,-174.59 940.86,-175.04 943.46,-181.54"/>
</g>
<!-- node1744347043 -->
<g id="node22" class="node">
<title>node1744347043</title>
<ellipse fill="none" stroke="black" cx="1061" cy="-162" rx="38.19" ry="18"/>
<text text-anchor="middle" x="1061" y="-158.3" font-family="Times New Roman,serif" font-size="14.00">variable</text>
</g>
<!-- node242481580&#45;&gt;node1744347043 -->
<g id="edge21" class="edge">
<title>node242481580&#45;&gt;node1744347043</title>
<path fill="none" stroke="black" d="M1422.21,-221.68C1416.29,-219.52 1410,-217.48 1404,-216 1275.31,-184.35 1236.91,-210.73 1108,-180 1105.44,-179.39 1102.82,-178.68 1100.2,-177.91"/>
<polygon fill="black" stroke="black" points="1101.55,-174.67 1090.96,-174.94 1099.41,-181.34 1101.55,-174.67"/>
</g>
<!-- node1254526270 -->
<g id="node23" class="node">
<title>node1254526270</title>
<ellipse fill="none" stroke="black" cx="1171" cy="-162" rx="53.89" ry="18"/>
<text text-anchor="middle" x="1171" y="-158.3" font-family="Times New Roman,serif" font-size="14.00">comparison</text>
</g>
<!-- node242481580&#45;&gt;node1254526270 -->
<g id="edge22" class="edge">
<title>node242481580&#45;&gt;node1254526270</title>
<path fill="none" stroke="black" d="M1421.62,-221.9C1415.85,-219.77 1409.77,-217.69 1404,-216 1329.88,-194.29 1309.09,-198.07 1234,-180 1230.25,-179.1 1226.39,-178.14 1222.5,-177.14"/>
<polygon fill="black" stroke="black" points="1223.61,-173.82 1213.05,-174.68 1221.84,-180.59 1223.61,-173.82"/>
</g>
<!-- node662441761 -->
<g id="node24" class="node">
<title>node662441761</title>
<ellipse fill="none" stroke="black" cx="1272" cy="-162" rx="29.5" ry="18"/>
<text text-anchor="middle" x="1272" y="-158.3" font-family="Times New Roman,serif" font-size="14.00">value</text>
</g>
<!-- node242481580&#45;&gt;node662441761 -->
<g id="edge23" class="edge">
<title>node242481580&#45;&gt;node662441761</title>
<path fill="none" stroke="black" d="M1420.79,-222.34C1383.32,-208.17 1320.59,-184.38 1310,-180 1308.5,-179.38 1306.97,-178.73 1305.42,-178.08"/>
<polygon fill="black" stroke="black" points="1307.18,-175.02 1296.61,-174.24 1304.38,-181.44 1307.18,-175.02"/>
</g>
<!-- node1618212626 -->
<g id="node25" class="node">
<title>node1618212626</title>
<ellipse fill="none" stroke="black" cx="1379" cy="-162" rx="59.59" ry="18"/>
<text text-anchor="middle" x="1379" y="-158.3" font-family="Times New Roman,serif" font-size="14.00">boolOperator</text>
</g>
<!-- node242481580&#45;&gt;node1618212626 -->
<g id="edge24" class="edge">
<title>node242481580&#45;&gt;node1618212626</title>
<path fill="none" stroke="black" d="M1433.46,-217.46C1424.65,-208.65 1413.43,-197.43 1403.46,-187.46"/>
<polygon fill="black" stroke="black" points="1406.08,-185.13 1396.54,-180.54 1401.13,-190.08 1406.08,-185.13"/>
</g>
<!-- node1129670968 -->
<g id="node26" class="node">
<title>node1129670968</title>
<ellipse fill="none" stroke="black" cx="1520" cy="-162" rx="63.89" ry="18"/>
<text text-anchor="middle" x="1520" y="-158.3" font-family="Times New Roman,serif" font-size="14.00">additionalBool</text>
</g>
<!-- node242481580&#45;&gt;node1129670968 -->
<g id="edge25" class="edge">
<title>node242481580&#45;&gt;node1129670968</title>
<path fill="none" stroke="black" d="M1464.76,-217.46C1473.63,-208.72 1484.92,-197.59 1494.97,-187.68"/>
<polygon fill="black" stroke="black" points="1497.31,-190.29 1501.97,-180.78 1492.39,-185.3 1497.31,-190.29"/>
</g>
<!-- node1023714065 -->
<g id="node27" class="node">
<title>node1023714065</title>
<ellipse fill="none" stroke="black" cx="1661" cy="-162" rx="59.59" ry="18"/>
<text text-anchor="middle" x="1661" y="-158.3" font-family="Times New Roman,serif" font-size="14.00">boolOperator</text>
</g>
<!-- node242481580&#45;&gt;node1023714065 -->
<g id="edge26" class="edge">
<title>node242481580&#45;&gt;node1023714065</title>
<path fill="none" stroke="black" d="M1477,-222.16C1482.61,-220.06 1488.48,-217.92 1494,-216 1532.34,-202.69 1576.07,-188.85 1609.17,-178.66"/>
<polygon fill="black" stroke="black" points="1609.98,-182.07 1618.51,-175.79 1607.93,-175.38 1609.98,-182.07"/>
</g>
<!-- node2051450519 -->
<g id="node28" class="node">
<title>node2051450519</title>
<ellipse fill="none" stroke="black" cx="1827" cy="-162" rx="63.89" ry="18"/>
<text text-anchor="middle" x="1827" y="-158.3" font-family="Times New Roman,serif" font-size="14.00">additionalBool</text>
</g>
<!-- node242481580&#45;&gt;node2051450519 -->
<g id="edge27" class="edge">
<title>node242481580&#45;&gt;node2051450519</title>
<path fill="none" stroke="black" d="M1476.31,-221.64C1482.08,-219.54 1488.18,-217.52 1494,-216 1596.64,-189.1 1625.29,-197.16 1730,-180 1740.64,-178.26 1751.93,-176.34 1762.9,-174.44"/>
<polygon fill="black" stroke="black" points="1763.43,-177.9 1772.69,-172.74 1762.23,-171 1763.43,-177.9"/>
</g>
<!-- node99747242 -->
<g id="node29" class="node">
<title>node99747242</title>
<ellipse fill="none" stroke="black" cx="1974" cy="-162" rx="59.59" ry="18"/>
<text text-anchor="middle" x="1974" y="-158.3" font-family="Times New Roman,serif" font-size="14.00">boolOperator</text>
</g>
<!-- node242481580&#45;&gt;node99747242 -->
<g id="edge28" class="edge">
<title>node242481580&#45;&gt;node99747242</title>
<path fill="none" stroke="black" d="M1475.76,-221.53C1481.67,-219.38 1487.98,-217.38 1494,-216 1670.59,-175.62 1721.08,-208.35 1900,-180 1906.02,-179.05 1912.28,-177.88 1918.5,-176.61"/>
<polygon fill="black" stroke="black" points="1919.06,-180.07 1928.1,-174.56 1917.59,-173.23 1919.06,-180.07"/>
</g>
<!-- node1837543557 -->
<g id="node30" class="node">
<title>node1837543557</title>
<ellipse fill="none" stroke="black" cx="2118" cy="-162" rx="63.89" ry="18"/>
<text text-anchor="middle" x="2118" y="-158.3" font-family="Times New Roman,serif" font-size="14.00">additionalBool</text>
</g>
<!-- node242481580&#45;&gt;node1837543557 -->
<g id="edge29" class="edge">
<title>node242481580&#45;&gt;node1837543557</title>
<path fill="none" stroke="black" d="M1475.74,-221.42C1481.65,-219.28 1487.96,-217.31 1494,-216 1732.98,-164.23 1801.01,-215.14 2043,-180 2048.64,-179.18 2054.48,-178.16 2060.3,-177.04"/>
<polygon fill="black" stroke="black" points="2060.83,-180.5 2069.92,-175.06 2059.42,-173.64 2060.83,-180.5"/>
</g>
<!-- node1971489295 -->
<g id="node31" class="node">
<title>node1971489295</title>
<ellipse fill="none" stroke="black" cx="2295" cy="-162" rx="38.19" ry="18"/>
<text text-anchor="middle" x="2295" y="-158.3" font-family="Times New Roman,serif" font-size="14.00">variable</text>
</g>
<!-- node2065530879&#45;&gt;node1971489295 -->
<g id="edge30" class="edge">
<title>node2065530879&#45;&gt;node1971489295</title>
<path fill="none" stroke="black" d="M2008.81,-221.92C2014.07,-219.75 2019.66,-217.64 2025,-216 2066.03,-203.4 2182.51,-182.37 2248.29,-170.96"/>
<polygon fill="black" stroke="black" points="2248.81,-174.42 2258.07,-169.27 2247.62,-167.52 2248.81,-174.42"/>
</g>
<!-- node985655350 -->
<g id="node32" class="node">
<title>node985655350</title>
<ellipse fill="none" stroke="black" cx="2446" cy="-162" rx="66.89" ry="18"/>
<text text-anchor="middle" x="2446" y="-158.3" font-family="Times New Roman,serif" font-size="14.00">unaryOperation</text>
</g>
<!-- node2065530879&#45;&gt;node985655350 -->
<g id="edge31" class="edge">
<title>node2065530879&#45;&gt;node985655350</title>
<path fill="none" stroke="black" d="M2008.29,-221.77C2013.68,-219.55 2019.45,-217.46 2025,-216 2162.12,-179.89 2201.54,-199.44 2342,-180 2354.14,-178.32 2367.05,-176.35 2379.49,-174.37"/>
<polygon fill="black" stroke="black" points="2379.95,-177.84 2389.26,-172.79 2378.83,-170.93 2379.95,-177.84"/>
</g>
<!-- node804611486 -->
<g id="node33" class="node">
<title>node804611486</title>
<ellipse fill="none" stroke="black" cx="27" cy="-90" rx="27" ry="18"/>
<text text-anchor="middle" x="27" y="-86.3" font-family="Times New Roman,serif" font-size="14.00">int</text>
</g>
<!-- node943010986&#45;&gt;node804611486 -->
<g id="edge32" class="edge">
<title>node943010986&#45;&gt;node804611486</title>
<path fill="none" stroke="black" d="M27,-143.7C27,-136.41 27,-127.73 27,-119.54"/>
<polygon fill="black" stroke="black" points="30.5,-119.62 27,-109.62 23.5,-119.62 30.5,-119.62"/>
</g>
<!-- node2008017533 -->
<g id="node34" class="node">
<title>node2008017533</title>
<ellipse fill="none" stroke="black" cx="110" cy="-90" rx="27" ry="18"/>
<text text-anchor="middle" x="110" y="-86.3" font-family="Times New Roman,serif" font-size="14.00">i</text>
</g>
<!-- node1807837413&#45;&gt;node2008017533 -->
<g id="edge33" class="edge">
<title>node1807837413&#45;&gt;node2008017533</title>
<path fill="none" stroke="black" d="M110,-143.7C110,-136.41 110,-127.73 110,-119.54"/>
<polygon fill="black" stroke="black" points="113.5,-119.62 110,-109.62 106.5,-119.62 113.5,-119.62"/>
</g>
<!-- node370988149 -->
<g id="node35" class="node">
<title>node370988149</title>
<ellipse fill="none" stroke="black" cx="199" cy="-90" rx="27" ry="18"/>
<text text-anchor="middle" x="199" y="-86.3" font-family="Times New Roman,serif" font-size="14.00">=</text>
</g>
<!-- node2066940133&#45;&gt;node370988149 -->
<g id="edge34" class="edge">
<title>node2066940133&#45;&gt;node370988149</title>
<path fill="none" stroke="black" d="M199,-143.7C199,-136.41 199,-127.73 199,-119.54"/>
<polygon fill="black" stroke="black" points="202.5,-119.62 199,-109.62 195.5,-119.62 202.5,-119.62"/>
</g>
<!-- node1395089624 -->
<g id="node36" class="node">
<title>node1395089624</title>
<ellipse fill="none" stroke="black" cx="279" cy="-90" rx="27" ry="18"/>
<text text-anchor="middle" x="279" y="-86.3" font-family="Times New Roman,serif" font-size="14.00">1</text>
</g>
<!-- node48612937&#45;&gt;node1395089624 -->
<g id="edge35" class="edge">
<title>node48612937&#45;&gt;node1395089624</title>
<path fill="none" stroke="black" d="M279,-143.7C279,-136.41 279,-127.73 279,-119.54"/>
<polygon fill="black" stroke="black" points="282.5,-119.62 279,-109.62 275.5,-119.62 282.5,-119.62"/>
</g>
<!-- node1476011703 -->
<g id="node37" class="node">
<title>node1476011703</title>
<ellipse fill="none" stroke="black" cx="364" cy="-90" rx="27" ry="18"/>
<text text-anchor="middle" x="364" y="-86.3" font-family="Times New Roman,serif" font-size="14.00">,</text>
</g>
<!-- node325333723&#45;&gt;node1476011703 -->
<g id="edge36" class="edge">
<title>node325333723&#45;&gt;node1476011703</title>
<path fill="none" stroke="black" d="M364,-143.7C364,-136.41 364,-127.73 364,-119.54"/>
<polygon fill="black" stroke="black" points="367.5,-119.62 364,-109.62 360.5,-119.62 367.5,-119.62"/>
</g>
<!-- node1603195447 -->
<g id="node38" class="node">
<title>node1603195447</title>
<ellipse fill="none" stroke="black" cx="458" cy="-90" rx="27" ry="18"/>
<text text-anchor="middle" x="458" y="-86.3" font-family="Times New Roman,serif" font-size="14.00">c</text>
</g>
<!-- node1937962514&#45;&gt;node1603195447 -->
<g id="edge37" class="edge">
<title>node1937962514&#45;&gt;node1603195447</title>
<path fill="none" stroke="black" d="M458,-143.7C458,-136.41 458,-127.73 458,-119.54"/>
<polygon fill="black" stroke="black" points="461.5,-119.62 458,-109.62 454.5,-119.62 461.5,-119.62"/>
</g>
<!-- node792791759 -->
<g id="node39" class="node">
<title>node792791759</title>
<ellipse fill="none" stroke="black" cx="547" cy="-90" rx="27" ry="18"/>
<text text-anchor="middle" x="547" y="-86.3" font-family="Times New Roman,serif" font-size="14.00">=</text>
</g>
<!-- node274064559&#45;&gt;node792791759 -->
<g id="edge38" class="edge">
<title>node274064559&#45;&gt;node792791759</title>
<path fill="none" stroke="black" d="M547,-143.7C547,-136.41 547,-127.73 547,-119.54"/>
<polygon fill="black" stroke="black" points="550.5,-119.62 547,-109.62 543.5,-119.62 550.5,-119.62"/>
</g>
<!-- node1191747167 -->
<g id="node40" class="node">
<title>node1191747167</title>
<ellipse fill="none" stroke="black" cx="627" cy="-90" rx="27" ry="18"/>
<text text-anchor="middle" x="627" y="-86.3" font-family="Times New Roman,serif" font-size="14.00">4</text>
</g>
<!-- node1018081122&#45;&gt;node1191747167 -->
<g id="edge39" class="edge">
<title>node1018081122&#45;&gt;node1191747167</title>
<path fill="none" stroke="black" d="M627,-143.7C627,-136.41 627,-127.73 627,-119.54"/>
<polygon fill="black" stroke="black" points="630.5,-119.62 627,-109.62 623.5,-119.62 630.5,-119.62"/>
</g>
<!-- node1094834071 -->
<g id="node41" class="node">
<title>node1094834071</title>
<ellipse fill="none" stroke="black" cx="712" cy="-90" rx="27" ry="18"/>
<text text-anchor="middle" x="712" y="-86.3" font-family="Times New Roman,serif" font-size="14.00">,</text>
</g>
<!-- node242131142&#45;&gt;node1094834071 -->
<g id="edge40" class="edge">
<title>node242131142&#45;&gt;node1094834071</title>
<path fill="none" stroke="black" d="M712,-143.7C712,-136.41 712,-127.73 712,-119.54"/>
<polygon fill="black" stroke="black" points="715.5,-119.62 712,-109.62 708.5,-119.62 715.5,-119.62"/>
</g>
<!-- node1761061602 -->
<g id="node42" class="node">
<title>node1761061602</title>
<ellipse fill="none" stroke="black" cx="806" cy="-90" rx="27" ry="18"/>
<text text-anchor="middle" x="806" y="-86.3" font-family="Times New Roman,serif" font-size="14.00">d</text>
</g>
<!-- node1782113663&#45;&gt;node1761061602 -->
<g id="edge41" class="edge">
<title>node1782113663&#45;&gt;node1761061602</title>
<path fill="none" stroke="black" d="M806,-143.7C806,-136.41 806,-127.73 806,-119.54"/>
<polygon fill="black" stroke="black" points="809.5,-119.62 806,-109.62 802.5,-119.62 809.5,-119.62"/>
</g>
<!-- node1330106945 -->
<g id="node43" class="node">
<title>node1330106945</title>
<ellipse fill="none" stroke="black" cx="895" cy="-90" rx="27" ry="18"/>
<text text-anchor="middle" x="895" y="-86.3" font-family="Times New Roman,serif" font-size="14.00">=</text>
</g>
<!-- node1433867275&#45;&gt;node1330106945 -->
<g id="edge42" class="edge">
<title>node1433867275&#45;&gt;node1330106945</title>
<path fill="none" stroke="black" d="M895,-143.7C895,-136.41 895,-127.73 895,-119.54"/>
<polygon fill="black" stroke="black" points="898.5,-119.62 895,-109.62 891.5,-119.62 898.5,-119.62"/>
</g>
<!-- node1279149968 -->
<g id="node44" class="node">
<title>node1279149968</title>
<ellipse fill="none" stroke="black" cx="975" cy="-90" rx="27" ry="18"/>
<text text-anchor="middle" x="975" y="-86.3" font-family="Times New Roman,serif" font-size="14.00">3</text>
</g>
<!-- node476800120&#45;&gt;node1279149968 -->
<g id="edge43" class="edge">
<title>node476800120&#45;&gt;node1279149968</title>
<path fill="none" stroke="black" d="M975,-143.7C975,-136.41 975,-127.73 975,-119.54"/>
<polygon fill="black" stroke="black" points="978.5,-119.62 975,-109.62 971.5,-119.62 978.5,-119.62"/>
</g>
<!-- node59559151 -->
<g id="node45" class="node">
<title>node59559151</title>
<ellipse fill="none" stroke="black" cx="1061" cy="-90" rx="27" ry="18"/>
<text text-anchor="middle" x="1061" y="-86.3" font-family="Times New Roman,serif" font-size="14.00">i</text>
</g>
<!-- node1744347043&#45;&gt;node59559151 -->
<g id="edge44" class="edge">
<title>node1744347043&#45;&gt;node59559151</title>
<path fill="none" stroke="black" d="M1061,-143.7C1061,-136.41 1061,-127.73 1061,-119.54"/>
<polygon fill="black" stroke="black" points="1064.5,-119.62 1061,-109.62 1057.5,-119.62 1064.5,-119.62"/>
</g>
<!-- node1450821318 -->
<g id="node46" class="node">
<title>node1450821318</title>
<ellipse fill="none" stroke="black" cx="1141" cy="-90" rx="27" ry="18"/>
<text text-anchor="middle" x="1141" y="-86.3" font-family="Times New Roman,serif" font-size="14.00">&lt;</text>
</g>
<!-- node1254526270&#45;&gt;node1450821318 -->
<g id="edge45" class="edge">
<title>node1254526270&#45;&gt;node1450821318</title>
<path fill="none" stroke="black" d="M1163.58,-143.7C1160.27,-135.95 1156.28,-126.64 1152.58,-118.02"/>
<polygon fill="black" stroke="black" points="1155.88,-116.83 1148.72,-109.01 1149.44,-119.58 1155.88,-116.83"/>
</g>
<!-- node668849042 -->
<g id="node47" class="node">
<title>node668849042</title>
<ellipse fill="none" stroke="black" cx="1213" cy="-90" rx="27" ry="18"/>
<text text-anchor="middle" x="1213" y="-86.3" font-family="Times New Roman,serif" font-size="14.00">10</text>
</g>
<!-- node662441761&#45;&gt;node668849042 -->
<g id="edge46" class="edge">
<title>node662441761&#45;&gt;node668849042</title>
<path fill="none" stroke="black" d="M1258.91,-145.46C1251.32,-136.46 1241.6,-124.93 1233.07,-114.81"/>
<polygon fill="black" stroke="black" points="1235.75,-112.56 1226.63,-107.17 1230.4,-117.07 1235.75,-112.56"/>
</g>
<!-- node434176574 -->
<g id="node48" class="node">
<title>node434176574</title>
<ellipse fill="none" stroke="black" cx="1285" cy="-90" rx="27" ry="18"/>
<text text-anchor="middle" x="1285" y="-86.3" font-family="Times New Roman,serif" font-size="14.00">&amp;&amp;</text>
</g>
<!-- node1618212626&#45;&gt;node434176574 -->
<g id="edge47" class="edge">
<title>node1618212626&#45;&gt;node434176574</title>
<path fill="none" stroke="black" d="M1357.2,-144.76C1343.58,-134.63 1325.97,-121.51 1311.54,-110.76"/>
<polygon fill="black" stroke="black" points="1313.92,-108.17 1303.81,-105.01 1309.74,-113.79 1313.92,-108.17"/>
</g>
<!-- node2096057945 -->
<g id="node49" class="node">
<title>node2096057945</title>
<ellipse fill="none" stroke="black" cx="1368" cy="-90" rx="38.19" ry="18"/>
<text text-anchor="middle" x="1368" y="-86.3" font-family="Times New Roman,serif" font-size="14.00">variable</text>
</g>
<!-- node1129670968&#45;&gt;node2096057945 -->
<g id="edge48" class="edge">
<title>node1129670968&#45;&gt;node2096057945</title>
<path fill="none" stroke="black" d="M1487.76,-146.15C1463.52,-134.99 1430.25,-119.67 1404.93,-108.01"/>
<polygon fill="black" stroke="black" points="1406.54,-104.9 1395.99,-103.89 1403.61,-111.25 1406.54,-104.9"/>
</g>
<!-- node1689843956 -->
<g id="node50" class="node">
<title>node1689843956</title>
<ellipse fill="none" stroke="black" cx="1478" cy="-90" rx="53.89" ry="18"/>
<text text-anchor="middle" x="1478" y="-86.3" font-family="Times New Roman,serif" font-size="14.00">comparison</text>
</g>
<!-- node1129670968&#45;&gt;node1689843956 -->
<g id="edge49" class="edge">
<title>node1129670968&#45;&gt;node1689843956</title>
<path fill="none" stroke="black" d="M1509.83,-144.05C1505.04,-136.06 1499.2,-126.33 1493.84,-117.4"/>
<polygon fill="black" stroke="black" points="1497,-115.86 1488.85,-109.09 1491,-119.46 1497,-115.86"/>
</g>
<!-- node766572210 -->
<g id="node51" class="node">
<title>node766572210</title>
<ellipse fill="none" stroke="black" cx="1579" cy="-90" rx="29.5" ry="18"/>
<text text-anchor="middle" x="1579" y="-86.3" font-family="Times New Roman,serif" font-size="14.00">value</text>
</g>
<!-- node1129670968&#45;&gt;node766572210 -->
<g id="edge50" class="edge">
<title>node1129670968&#45;&gt;node766572210</title>
<path fill="none" stroke="black" d="M1534.28,-144.05C1541.62,-135.35 1550.69,-124.59 1558.74,-115.03"/>
<polygon fill="black" stroke="black" points="1561.31,-117.42 1565.08,-107.51 1555.96,-112.9 1561.31,-117.42"/>
</g>
<!-- node1020391880 -->
<g id="node52" class="node">
<title>node1020391880</title>
<ellipse fill="none" stroke="black" cx="1653" cy="-90" rx="27" ry="18"/>
<text text-anchor="middle" x="1653" y="-86.3" font-family="Times New Roman,serif" font-size="14.00">||</text>
</g>
<!-- node1023714065&#45;&gt;node1020391880 -->
<g id="edge51" class="edge">
<title>node1023714065&#45;&gt;node1020391880</title>
<path fill="none" stroke="black" d="M1659.02,-143.7C1658.19,-136.41 1657.2,-127.73 1656.26,-119.54"/>
<polygon fill="black" stroke="black" points="1659.74,-119.15 1655.13,-109.61 1652.78,-119.94 1659.74,-119.15"/>
</g>
<!-- node977993101 -->
<g id="node53" class="node">
<title>node977993101</title>
<ellipse fill="none" stroke="black" cx="1736" cy="-90" rx="38.19" ry="18"/>
<text text-anchor="middle" x="1736" y="-86.3" font-family="Times New Roman,serif" font-size="14.00">variable</text>
</g>
<!-- node2051450519&#45;&gt;node977993101 -->
<g id="edge52" class="edge">
<title>node2051450519&#45;&gt;node977993101</title>
<path fill="none" stroke="black" d="M1805.89,-144.76C1793.52,-135.25 1777.74,-123.1 1764.3,-112.77"/>
<polygon fill="black" stroke="black" points="1766.7,-110.2 1756.64,-106.88 1762.43,-115.75 1766.7,-110.2"/>
</g>
<!-- node429313384 -->
<g id="node54" class="node">
<title>node429313384</title>
<ellipse fill="none" stroke="black" cx="1846" cy="-90" rx="53.89" ry="18"/>
<text text-anchor="middle" x="1846" y="-86.3" font-family="Times New Roman,serif" font-size="14.00">comparison</text>
</g>
<!-- node2051450519&#45;&gt;node429313384 -->
<g id="edge53" class="edge">
<title>node2051450519&#45;&gt;node429313384</title>
<path fill="none" stroke="black" d="M1831.7,-143.7C1833.72,-136.24 1836.14,-127.32 1838.41,-118.97"/>
<polygon fill="black" stroke="black" points="1841.72,-120.13 1840.96,-109.57 1834.96,-118.3 1841.72,-120.13"/>
</g>
<!-- node859417998 -->
<g id="node55" class="node">
<title>node859417998</title>
<ellipse fill="none" stroke="black" cx="1947" cy="-90" rx="29.5" ry="18"/>
<text text-anchor="middle" x="1947" y="-86.3" font-family="Times New Roman,serif" font-size="14.00">value</text>
</g>
<!-- node2051450519&#45;&gt;node859417998 -->
<g id="edge54" class="edge">
<title>node2051450519&#45;&gt;node859417998</title>
<path fill="none" stroke="black" d="M1853.93,-145.29C1872.44,-134.49 1897.06,-120.13 1916.32,-108.9"/>
<polygon fill="black" stroke="black" points="1917.94,-112 1924.82,-103.94 1914.42,-105.95 1917.94,-112"/>
</g>
<!-- node5592464 -->
<g id="node56" class="node">
<title>node5592464</title>
<ellipse fill="none" stroke="black" cx="2021" cy="-90" rx="27" ry="18"/>
<text text-anchor="middle" x="2021" y="-86.3" font-family="Times New Roman,serif" font-size="14.00">^</text>
</g>
<!-- node99747242&#45;&gt;node5592464 -->
<g id="edge55" class="edge">
<title>node99747242&#45;&gt;node5592464</title>
<path fill="none" stroke="black" d="M1985.38,-144.05C1990.96,-135.73 1997.81,-125.54 2004,-116.32"/>
<polygon fill="black" stroke="black" points="2006.86,-118.34 2009.53,-108.09 2001.05,-114.44 2006.86,-118.34"/>
</g>
<!-- node1830712962 -->
<g id="node57" class="node">
<title>node1830712962</title>
<ellipse fill="none" stroke="black" cx="2104" cy="-90" rx="38.19" ry="18"/>
<text text-anchor="middle" x="2104" y="-86.3" font-family="Times New Roman,serif" font-size="14.00">variable</text>
</g>
<!-- node1837543557&#45;&gt;node1830712962 -->
<g id="edge56" class="edge">
<title>node1837543557&#45;&gt;node1830712962</title>
<path fill="none" stroke="black" d="M2114.54,-143.7C2113.06,-136.32 2111.3,-127.52 2109.65,-119.25"/>
<polygon fill="black" stroke="black" points="2113.11,-118.71 2107.72,-109.59 2106.25,-120.08 2113.11,-118.71"/>
</g>
<!-- node1112280004 -->
<g id="node58" class="node">
<title>node1112280004</title>
<ellipse fill="none" stroke="black" cx="2214" cy="-90" rx="53.89" ry="18"/>
<text text-anchor="middle" x="2214" y="-86.3" font-family="Times New Roman,serif" font-size="14.00">comparison</text>
</g>
<!-- node1837543557&#45;&gt;node1112280004 -->
<g id="edge57" class="edge">
<title>node1837543557&#45;&gt;node1112280004</title>
<path fill="none" stroke="black" d="M2140.27,-144.76C2152.96,-135.51 2169.06,-123.77 2182.97,-113.63"/>
<polygon fill="black" stroke="black" points="2184.95,-116.52 2190.96,-107.8 2180.82,-110.86 2184.95,-116.52"/>
</g>
<!-- node1013423070 -->
<g id="node59" class="node">
<title>node1013423070</title>
<ellipse fill="none" stroke="black" cx="2315" cy="-90" rx="29.5" ry="18"/>
<text text-anchor="middle" x="2315" y="-86.3" font-family="Times New Roman,serif" font-size="14.00">value</text>
</g>
<!-- node1837543557&#45;&gt;node1013423070 -->
<g id="edge58" class="edge">
<title>node1837543557&#45;&gt;node1013423070</title>
<path fill="none" stroke="black" d="M2160.25,-148.17C2192.53,-138.07 2237.95,-123.2 2277,-108 2278.56,-107.39 2280.14,-106.76 2281.74,-106.1"/>
<polygon fill="black" stroke="black" points="2283.03,-109.36 2290.86,-102.21 2280.28,-102.92 2283.03,-109.36"/>
</g>
<!-- node380936215 -->
<g id="node60" class="node">
<title>node380936215</title>
<ellipse fill="none" stroke="black" cx="2389" cy="-90" rx="27" ry="18"/>
<text text-anchor="middle" x="2389" y="-86.3" font-family="Times New Roman,serif" font-size="14.00">i</text>
</g>
<!-- node1971489295&#45;&gt;node380936215 -->
<g id="edge59" class="edge">
<title>node1971489295&#45;&gt;node380936215</title>
<path fill="none" stroke="black" d="M2314.93,-146.15C2328.86,-135.79 2347.59,-121.84 2362.73,-110.56"/>
<polygon fill="black" stroke="black" points="2364.48,-113.62 2370.41,-104.85 2360.3,-108.01 2364.48,-113.62"/>
</g>
<!-- node142638629 -->
<g id="node61" class="node">
<title>node142638629</title>
<ellipse fill="none" stroke="black" cx="2461" cy="-90" rx="27" ry="18"/>
<text text-anchor="middle" x="2461" y="-86.3" font-family="Times New Roman,serif" font-size="14.00">++</text>
</g>
<!-- node985655350&#45;&gt;node142638629 -->
<g id="edge60" class="edge">
<title>node985655350&#45;&gt;node142638629</title>
<path fill="none" stroke="black" d="M2449.71,-143.7C2451.29,-136.32 2453.17,-127.52 2454.95,-119.25"/>
<polygon fill="black" stroke="black" points="2458.34,-120.1 2457.02,-109.58 2451.5,-118.63 2458.34,-120.1"/>
</g>
<!-- node707806938 -->
<g id="node62" class="node">
<title>node707806938</title>
<ellipse fill="none" stroke="black" cx="1368" cy="-18" rx="27" ry="18"/>
<text text-anchor="middle" x="1368" y="-14.3" font-family="Times New Roman,serif" font-size="14.00">i</text>
</g>
<!-- node2096057945&#45;&gt;node707806938 -->
<g id="edge61" class="edge">
<title>node2096057945&#45;&gt;node707806938</title>
<path fill="none" stroke="black" d="M1368,-71.7C1368,-64.41 1368,-55.73 1368,-47.54"/>
<polygon fill="black" stroke="black" points="1371.5,-47.62 1368,-37.62 1364.5,-47.62 1371.5,-47.62"/>
</g>
<!-- node705265961 -->
<g id="node63" class="node">
<title>node705265961</title>
<ellipse fill="none" stroke="black" cx="1478" cy="-18" rx="27" ry="18"/>
<text text-anchor="middle" x="1478" y="-14.3" font-family="Times New Roman,serif" font-size="14.00">&lt;</text>
</g>
<!-- node1689843956&#45;&gt;node705265961 -->
<g id="edge62" class="edge">
<title>node1689843956&#45;&gt;node705265961</title>
<path fill="none" stroke="black" d="M1478,-71.7C1478,-64.41 1478,-55.73 1478,-47.54"/>
<polygon fill="black" stroke="black" points="1481.5,-47.62 1478,-37.62 1474.5,-47.62 1481.5,-47.62"/>
</g>
<!-- node428746855 -->
<g id="node64" class="node">
<title>node428746855</title>
<ellipse fill="none" stroke="black" cx="1579" cy="-18" rx="27" ry="18"/>
<text text-anchor="middle" x="1579" y="-14.3" font-family="Times New Roman,serif" font-size="14.00">2</text>
</g>
<!-- node766572210&#45;&gt;node428746855 -->
<g id="edge63" class="edge">
<title>node766572210&#45;&gt;node428746855</title>
<path fill="none" stroke="black" d="M1579,-71.7C1579,-64.41 1579,-55.73 1579,-47.54"/>
<polygon fill="black" stroke="black" points="1582.5,-47.62 1579,-37.62 1575.5,-47.62 1582.5,-47.62"/>
</g>
<!-- node317983781 -->
<g id="node65" class="node">
<title>node317983781</title>
<ellipse fill="none" stroke="black" cx="1736" cy="-18" rx="27" ry="18"/>
<text text-anchor="middle" x="1736" y="-14.3" font-family="Times New Roman,serif" font-size="14.00">i</text>
</g>
<!-- node977993101&#45;&gt;node317983781 -->
<g id="edge64" class="edge">
<title>node977993101&#45;&gt;node317983781</title>
<path fill="none" stroke="black" d="M1736,-71.7C1736,-64.41 1736,-55.73 1736,-47.54"/>
<polygon fill="black" stroke="black" points="1739.5,-47.62 1736,-37.62 1732.5,-47.62 1739.5,-47.62"/>
</g>
<!-- node987405879 -->
<g id="node66" class="node">
<title>node987405879</title>
<ellipse fill="none" stroke="black" cx="1846" cy="-18" rx="27" ry="18"/>
<text text-anchor="middle" x="1846" y="-14.3" font-family="Times New Roman,serif" font-size="14.00">&lt;</text>
</g>
<!-- node429313384&#45;&gt;node987405879 -->
<g id="edge65" class="edge">
<title>node429313384&#45;&gt;node987405879</title>
<path fill="none" stroke="black" d="M1846,-71.7C1846,-64.41 1846,-55.73 1846,-47.54"/>
<polygon fill="black" stroke="black" points="1849.5,-47.62 1846,-37.62 1842.5,-47.62 1849.5,-47.62"/>
</g>
<!-- node1555845260 -->
<g id="node67" class="node">
<title>node1555845260</title>
<ellipse fill="none" stroke="black" cx="1947" cy="-18" rx="27" ry="18"/>
<text text-anchor="middle" x="1947" y="-14.3" font-family="Times New Roman,serif" font-size="14.00">1</text>
</g>
<!-- node859417998&#45;&gt;node1555845260 -->
<g id="edge66" class="edge">
<title>node859417998&#45;&gt;node1555845260</title>
<path fill="none" stroke="black" d="M1947,-71.7C1947,-64.41 1947,-55.73 1947,-47.54"/>
<polygon fill="black" stroke="black" points="1950.5,-47.62 1947,-37.62 1943.5,-47.62 1950.5,-47.62"/>
</g>
<!-- node874088044 -->
<g id="node68" class="node">
<title>node874088044</title>
<ellipse fill="none" stroke="black" cx="2104" cy="-18" rx="27" ry="18"/>
<text text-anchor="middle" x="2104" y="-14.3" font-family="Times New Roman,serif" font-size="14.00">i</text>
</g>
<!-- node1830712962&#45;&gt;node874088044 -->
<g id="edge67" class="edge">
<title>node1830712962&#45;&gt;node874088044</title>
<path fill="none" stroke="black" d="M2104,-71.7C2104,-64.41 2104,-55.73 2104,-47.54"/>
<polygon fill="black" stroke="black" points="2107.5,-47.62 2104,-37.62 2100.5,-47.62 2107.5,-47.62"/>
</g>
<!-- node104739310 -->
<g id="node69" class="node">
<title>node104739310</title>
<ellipse fill="none" stroke="black" cx="2214" cy="-18" rx="27" ry="18"/>
<text text-anchor="middle" x="2214" y="-14.3" font-family="Times New Roman,serif" font-size="14.00">&gt;</text>
</g>
<!-- node1112280004&#45;&gt;node104739310 -->
<g id="edge68" class="edge">
<title>node1112280004&#45;&gt;node104739310</title>
<path fill="none" stroke="black" d="M2214,-71.7C2214,-64.41 2214,-55.73 2214,-47.54"/>
<polygon fill="black" stroke="black" points="2217.5,-47.62 2214,-37.62 2210.5,-47.62 2217.5,-47.62"/>
</g>
<!-- node1761291320 -->
<g id="node70" class="node">
<title>node1761291320</title>
<ellipse fill="none" stroke="black" cx="2315" cy="-18" rx="27" ry="18"/>
<text text-anchor="middle" x="2315" y="-14.3" font-family="Times New Roman,serif" font-size="14.00">5</text>
</g>
<!-- node1013423070&#45;&gt;node1761291320 -->
<g id="edge69" class="edge">
<title>node1013423070&#45;&gt;node1761291320</title>
<path fill="none" stroke="black" d="M2315,-71.7C2315,-64.41 2315,-55.73 2315,-47.54"/>
<polygon fill="black" stroke="black" points="2318.5,-47.62 2315,-37.62 2311.5,-47.62 2318.5,-47.62"/>
</g>
</g>
</svg>
